<svg version="1.2" baseProfile="tiny" xmlns="http://www.w3.org/2000/svg" x="0" y="0" width="44" height="40" viewBox="0 0 44 40" xml:space="preserve"><path class="path" fill="#231F20" d="M39.4 14.5c-0.7-1.3-1.8-2.4-3-3.3l-0.2-0.2 0-0.3c-0.2-3.3-2.1-6.2-4.9-7.8 -1.5-0.9-3.2-1.3-4.9-1.3 -1.5 0-3 0.3-4.3 1l-0.2 0.1 -0.2-0.1c-3-1.4-6.4-1.3-9.2 0.3 -1.5 0.9-2.7 2.1-3.6 3.6 -0.7 1.3-1.2 2.8-1.3 4.3l0 0.3 -0.2 0.2c-2.7 1.8-4.3 4.9-4.3 8.2 0 1.7 0.5 3.4 1.3 4.9 0.7 1.3 1.8 2.4 3 3.3l0.2 0.2 0 0.3c0.2 3.3 2.1 6.2 4.9 7.8 1.5 0.9 3.2 1.3 4.9 1.3 1.5 0 3-0.3 4.3-1l0.2-0.1 0.2 0.1c3 1.4 6.4 1.3 9.2-0.3 1.5-0.9 2.7-2.1 3.6-3.6 0.7-1.3 1.2-2.8 1.3-4.3l0-0.3 0.2-0.2c2.7-1.8 4.3-4.9 4.3-8.2C40.7 17.7 40.3 16 39.4 14.5zM24.1 3.4c0.7-0.2 1.5-0.3 2.2-0.3 1.5 0 2.9 0.4 4.2 1.1 1.8 1 3.1 2.7 3.8 4.6 0.1 0.3 0 0.6-0.1 0.8 -0.1 0.2-0.3 0.3-0.5 0.3 -0.1 0-0.1 0-0.2 0 -0.8-0.2-1.7-0.3-2.6-0.3l-11.7 0c-0.3 0-0.6-0.1-0.7-0.4 -0.1-0.3-0.1-0.6 0-0.8 0.2-0.4 0.5-0.9 0.6-1C20.1 5.4 22 4 24.1 3.4zM16.9 16.3c0.4 0.1 0.8 0.6 0.9 0.9l0.7 2.5c0.2 0.7 0.7 1.7 1.3 2.2l0.3 0.3c0.4 0.4 0.4 1 0 1.4l-2.6 2.6c-0.1 0.1-0.4 0.3-0.7 0.3 -0.3 0-0.6-0.2-0.8-0.5l-3.5-6.1c-0.2-0.4-0.2-0.9 0-1.3l0 0 1.4-2.5c0.2-0.3 0.6-0.6 1-0.6 0.1 0 0.2 0 0.3 0L16.9 16.3zM15.6 13.2l0.9-1.5c0.2-0.4 0.7-0.7 1.2-0.7l8.1 0c0.5 0 0.9 0.3 1.2 0.7l0.9 1.5c0.1 0.3 0.2 0.5 0.1 0.8 -0.1 0.3-0.3 0.5-0.6 0.5l-1.1 0.3c-0.8 0.3-1.6 1.1-1.9 1.9l-0.7 2.5c-0.1 0.5-0.6 0.9-1.1 0.9h-1.6c-0.5 0-1-0.4-1.1-0.9l-0.7-2.5c-0.2-0.9-1-1.7-1.9-1.9l-1.1-0.3c-0.3-0.1-0.5-0.3-0.6-0.5C15.5 13.8 15.5 13.5 15.6 13.2zM19.3 26.6l1.8-1.8c0.2-0.2 0.4-0.3 0.7-0.3s0.5 0.1 0.7 0.3l1.8 1.8c0.3 0.3 0.3 0.6 0.2 0.8 -0.1 0.3-0.4 0.4-0.7 0.4h-3.9c-0.4 0-0.6-0.2-0.7-0.4C18.9 27.2 19 26.8 19.3 26.6zM23.5 23.8c-0.4-0.4-0.4-1 0-1.4l0.3-0.3c0.5-0.5 1.1-1.5 1.3-2.2l0.7-2.5c0.1-0.4 0.5-0.8 0.9-0.9l1.7-0.5c0.1 0 0.2 0 0.3 0 0.4 0 0.8 0.2 1 0.6l1.4 2.5 0 0c0.2 0.4 0.2 0.9 0 1.3l-3.5 6.1c-0.2 0.3-0.5 0.5-0.8 0.5 -0.3 0-0.5-0.1-0.7-0.3L23.5 23.8zM9 9.4c0.2-0.7 0.5-1.4 0.8-2 0.7-1.3 1.8-2.3 3.1-3.1 1.8-1 3.8-1.4 5.9-0.9 0.3 0.1 0.5 0.3 0.6 0.5 0.1 0.2 0.1 0.4 0 0.6 0 0.1-0.1 0.1-0.1 0.1 -0.6 0.6-1.1 1.3-1.6 2.1l-5.9 10.1c-0.2 0.3-0.4 0.4-0.7 0.4s-0.6-0.2-0.7-0.4c-0.2-0.4-0.5-0.9-0.6-1C8.8 13.8 8.5 11.6 9 9.4zM6.7 25.4c-0.5-0.5-1-1.1-1.3-1.7 -0.7-1.3-1.1-2.7-1.1-4.2 0-2 0.7-4 2.1-5.6 0.2-0.2 0.5-0.3 0.7-0.3 0.2 0 0.4 0.1 0.5 0.3 0 0.1 0.1 0.1 0.1 0.2 0.2 0.8 0.6 1.6 1 2.4l5.9 10.1c0.2 0.3 0.2 0.6 0 0.8 -0.1 0.3-0.4 0.4-0.7 0.4 -0.4 0-1.1 0-1.2 0C10.4 27.9 8.2 27 6.7 25.4zM19.4 35.5c-0.7 0.2-1.5 0.3-2.2 0.3 -1.5 0-2.9-0.4-4.2-1.1 -1.8-1-3.1-2.7-3.8-4.6 -0.1-0.3 0-0.6 0.1-0.8 0.1-0.2 0.3-0.3 0.5-0.3 0.1 0 0.1 0 0.2 0 0.8 0.2 1.7 0.3 2.6 0.3l11.7 0c0.3 0 0.6 0.1 0.7 0.4 0.1 0.3 0.1 0.6 0 0.8 -0.2 0.4-0.5 0.9-0.6 1C23.3 33.5 21.5 34.9 19.4 35.5zM34.4 29.6c-0.2 0.7-0.5 1.4-0.8 2 -0.7 1.3-1.8 2.3-3.1 3.1 -1.8 1-3.8 1.4-5.9 0.9 -0.3-0.1-0.5-0.3-0.6-0.5 -0.1-0.2-0.1-0.4 0-0.6 0-0.1 0.1-0.1 0.1-0.1 0.6-0.6 1.1-1.3 1.6-2.1l5.9-10.1c0.2-0.3 0.4-0.4 0.7-0.4 0.3 0 0.6 0.2 0.7 0.4 0.2 0.4 0.5 0.9 0.6 1C34.7 25.1 35 27.4 34.4 29.6zM37.1 25c-0.2 0.2-0.5 0.3-0.7 0.3 -0.2 0-0.4-0.1-0.5-0.3 0-0.1-0.1-0.1-0.1-0.2 -0.2-0.8-0.6-1.6-1-2.4l-5.9-10.1c-0.2-0.3-0.2-0.6 0-0.8 0.1-0.3 0.4-0.4 0.7-0.4 0.4 0 1.1 0 1.2 0 2.3 0 4.4 0.9 5.9 2.5 0.5 0.5 1 1.1 1.3 1.7 0.7 1.3 1.1 2.7 1.1 4.2C39.3 21.5 38.5 23.5 37.1 25z"/></svg>
