<?xml version="1.0" standalone="no"?>
<!DOCTYPE svg PUBLIC "-//W3C//DTD SVG 20010904//EN"
 "http://www.w3.org/TR/2001/REC-SVG-20010904/DTD/svg10.dtd">
<svg version="1.0" xmlns="http://www.w3.org/2000/svg"
 width="1000.000000pt" height="728.000000pt" viewBox="0 0 1000.000000 728.000000"
 preserveAspectRatio="xMidYMid meet">

 
 
<g transform="translate(0.000000,728.000000) scale(0.100000,-0.100000)"
fill="#fcfcfc" stroke="none">
<path d="M1701 6843 c-75 -161 -681 -1504 -681 -1508 0 -3 39 -5 88 -5 l87 1
90 202 90 202 416 3 417 2 90 -202 90 -203 92 -3 c84 -3 91 -1 86 15 -3 10
-159 356 -345 768 l-340 750 -84 3 c-83 3 -84 2 -96 -25z m264 -553 c92 -206
169 -381 172 -387 4 -10 -68 -13 -341 -13 -190 0 -346 4 -346 9 0 4 71 168
159 362 187 416 184 410 186 407 2 -2 78 -172 170 -378z"/>
<path d="M8281 6843 c-75 -161 -681 -1504 -681 -1508 0 -3 39 -5 88 -5 l87 1
90 202 90 202 416 3 417 2 90 -202 90 -203 92 -3 c84 -3 91 -1 86 15 -3 10
-159 356 -345 768 l-340 750 -84 3 c-83 3 -84 2 -96 -25z m264 -553 c92 -206
169 -381 172 -387 4 -10 -68 -13 -341 -13 -190 0 -346 4 -346 9 0 4 71 168
159 362 187 416 184 410 186 407 2 -2 78 -172 170 -378z"/>
<path d="M3390 6095 l0 -765 85 0 85 0 0 626 0 626 491 -624 491 -623 69 -3
69 -3 0 766 0 765 -80 0 -80 0 -2 -612 -3 -613 -480 612 -480 612 -82 1 -83 0
0 -765z"/>
<path d="M5560 6095 l0 -765 85 0 85 0 0 626 0 626 491 -624 491 -623 69 -3
69 -3 0 766 0 765 -80 0 -80 0 -2 -612 -3 -613 -480 612 -480 612 -82 1 -83 0
0 -765z"/>
<path d="M5243 4256 c-82 -27 -169 -101 -208 -177 -26 -49 -31 -148 -11 -208
9 -27 16 -52 16 -55 0 -2 -24 -12 -54 -20 -74 -22 -135 -70 -171 -136 -27 -50
-30 -63 -30 -150 0 -86 3 -101 31 -161 61 -128 202 -231 364 -265 56 -12 106
-15 195 -10 201 9 311 52 417 164 84 89 111 146 116 239 5 95 -16 157 -74 219
-24 26 -44 49 -44 49 0 1 33 5 74 8 198 17 316 127 316 294 0 197 -221 296
-364 163 -38 -36 -41 -43 -41 -90 0 -61 26 -90 82 -90 65 0 106 75 68 126 -19
25 -19 60 1 68 64 24 145 -11 174 -77 35 -76 20 -151 -44 -212 -60 -58 -120
-75 -306 -85 -230 -13 -293 -32 -362 -108 -45 -50 -55 -68 -68 -126 -32 -145
118 -269 237 -196 39 23 55 52 57 101 1 48 -26 79 -69 79 -50 0 -69 -21 -75
-81 -5 -50 -7 -54 -32 -57 -20 -2 -35 4 -53 24 -57 62 -34 160 52 214 64 41
115 53 196 47 82 -5 146 -41 192 -106 27 -39 30 -50 30 -119 -1 -92 -15 -124
-87 -194 -55 -53 -165 -110 -246 -127 -76 -16 -228 -14 -297 4 -84 22 -151 61
-222 131 -138 135 -159 292 -52 388 53 49 97 49 165 1 71 -51 114 -44 114 17
0 34 -29 54 -93 63 -40 6 -50 12 -64 39 -20 39 -21 129 -1 177 69 161 294 225
370 105 19 -31 19 -35 2 -131 -8 -45 7 -46 51 -2 72 72 52 188 -40 242 -55 33
-148 42 -212 21z"/>
<path d="M9085 1959 c-168 -25 -309 -118 -372 -248 -25 -51 -28 -66 -28 -166
0 -104 2 -114 32 -175 18 -36 45 -77 60 -92 76 -73 209 -128 448 -186 216 -53
300 -98 343 -182 49 -97 16 -226 -76 -296 -64 -48 -137 -68 -252 -67 -161 1
-302 51 -447 159 l-72 53 -51 -61 c-49 -59 -50 -61 -33 -80 28 -32 132 -103
200 -137 160 -80 396 -112 556 -77 256 57 404 251 368 481 -30 195 -165 298
-494 375 -318 75 -417 147 -417 306 0 53 42 135 86 169 61 47 122 67 214 72
144 8 268 -28 409 -119 l63 -42 19 25 c10 13 32 43 49 66 l31 42 -43 32 c-108
79 -253 132 -403 149 -101 11 -106 11 -190 -1z"/>
<path d="M2731 1923 c-75 -161 -681 -1504 -681 -1508 0 -3 39 -5 88 -5 l87 1
90 202 90 202 416 3 417 2 90 -202 90 -203 92 -3 c84 -3 91 -1 86 15 -3 10
-159 356 -345 768 l-340 750 -84 3 c-83 3 -84 2 -96 -25z m264 -553 c92 -206
169 -381 172 -387 4 -10 -68 -13 -341 -13 -190 0 -346 4 -346 9 0 4 71 168
159 362 187 416 184 410 186 407 2 -2 78 -172 170 -378z"/>
<path d="M1110 1381 c0 -530 -1 -562 -20 -623 -23 -75 -80 -147 -144 -181 -35
-19 -57 -22 -156 -22 -109 0 -118 2 -168 29 -61 34 -102 81 -137 158 -26 58
-55 203 -55 279 l0 49 -82 0 -81 0 6 -117 c4 -65 14 -145 23 -178 40 -152 148
-290 270 -347 61 -29 80 -32 181 -36 67 -3 139 0 175 8 136 26 250 114 308
235 57 119 60 161 60 761 l0 544 -90 0 -90 0 0 -559z"/>
<path d="M4420 1175 l0 -765 85 0 85 0 0 617 0 616 275 -404 c152 -222 279
-405 283 -406 4 -1 131 180 282 403 l275 405 3 -615 2 -616 90 0 90 0 0 765 0
765 -92 0 -93 -1 -277 -416 -276 -416 -278 417 -277 416 -89 0 -88 0 0 -765z"/>
<path d="M6770 1175 l0 -765 560 0 560 0 0 80 0 80 -475 0 -475 0 0 265 0 265
430 0 430 0 0 80 0 80 -430 0 -430 0 0 265 0 265 470 0 470 0 0 75 0 75 -555
0 -555 0 0 -765z"/>
</g>
</svg>
