<?xml version="1.0" encoding="utf-8"?>
<!-- Generator: Adobe Illustrator 16.0.0, SVG Export Plug-In . SVG Version: 6.00 Build 0)  -->
<svg version="1.2" baseProfile="tiny" id="Layer_1" xmlns="http://www.w3.org/2000/svg" xmlns:xlink="http://www.w3.org/1999/xlink"
	 x="0px" y="0px" width="44px" height="40px" viewBox="0 0 44 40" xml:space="preserve">
<path fill="#231F20" d="M39.418,14.549c-0.748-1.296-1.799-2.424-3.04-3.264l-0.226-0.153l-0.02-0.272
	c-0.237-3.274-2.069-6.207-4.901-7.845c-1.497-0.864-3.198-1.32-4.919-1.32c-1.496,0-2.999,0.346-4.346,1.001l-0.245,0.12
	l-0.246-0.119c-2.954-1.432-6.41-1.312-9.245,0.322c-1.496,0.864-2.742,2.109-3.602,3.599c-0.749,1.296-1.2,2.771-1.306,4.265
	l-0.02,0.272l-0.225,0.153c-2.717,1.842-4.341,4.895-4.343,8.167c0,1.728,0.455,3.429,1.316,4.92
	c0.748,1.295,1.799,2.424,3.04,3.263l0.226,0.153l0.02,0.271c0.236,3.274,2.069,6.207,4.901,7.845
	c1.497,0.864,3.197,1.32,4.918,1.32c1.497,0,3-0.346,4.347-1.001l0.246-0.119l0.245,0.119c2.954,1.432,6.41,1.311,9.245-0.322
	c1.496-0.864,2.742-2.108,3.603-3.6c0.748-1.296,1.199-2.771,1.306-4.265l0.02-0.271l0.226-0.153
	c2.717-1.842,4.341-4.896,4.344-8.167C40.734,17.741,40.278,16.04,39.418,14.549z M24.119,3.445c0.717-0.192,1.452-0.29,2.186-0.29
	c1.462,0,2.91,0.391,4.19,1.13c1.764,1.019,3.097,2.652,3.763,4.63c0.104,0.31,0.049,0.599-0.104,0.8
	c-0.125,0.164-0.314,0.257-0.519,0.257c-0.062,0-0.125-0.009-0.187-0.026c-0.839-0.226-1.708-0.341-2.585-0.341l-11.71-0.001
	c-0.326,0-0.597-0.145-0.742-0.397c-0.146-0.252-0.136-0.56,0.027-0.842c0.225-0.388,0.538-0.931,0.577-1
	C20.142,5.416,21.953,4.026,24.119,3.445z M16.858,16.348c0.355,0.109,0.778,0.552,0.87,0.912l0.652,2.534
	c0.189,0.736,0.737,1.697,1.275,2.234l0.334,0.334c0.397,0.397,0.384,1.038-0.014,1.437l-2.613,2.612
	c-0.135,0.135-0.357,0.279-0.653,0.279c-0.321,0-0.614-0.176-0.783-0.469l-3.504-6.071c-0.218-0.378-0.225-0.934-0.017-1.323
	l0.009-0.017l1.426-2.469c0.2-0.343,0.593-0.563,1-0.563c0.109,0,0.216,0.016,0.317,0.047L16.858,16.348z M15.625,13.248
	l0.867-1.502c0.227-0.392,0.72-0.677,1.173-0.677l8.138,0c0.453,0,0.947,0.286,1.174,0.678l0.866,1.5
	c0.146,0.253,0.171,0.546,0.068,0.806c-0.102,0.259-0.32,0.457-0.599,0.542l-1.135,0.349c-0.841,0.259-1.641,1.097-1.859,1.949
	l-0.652,2.534c-0.127,0.493-0.606,0.866-1.116,0.866h-1.633c-0.51,0-0.989-0.373-1.116-0.866l-0.652-2.534
	c-0.219-0.852-1.019-1.69-1.86-1.949l-1.133-0.349c-0.279-0.085-0.498-0.283-0.6-0.542C15.454,13.795,15.479,13.501,15.625,13.248z
	 M19.254,26.593l1.759-1.759c0.192-0.192,0.448-0.298,0.721-0.298s0.528,0.105,0.72,0.298l1.759,1.759
	c0.25,0.25,0.331,0.564,0.216,0.841c-0.114,0.276-0.394,0.441-0.747,0.441h-3.896c-0.354,0-0.633-0.165-0.748-0.441
	C18.924,27.157,19.004,26.843,19.254,26.593z M23.493,23.798c-0.398-0.398-0.411-1.039-0.014-1.437l0.334-0.334
	c0.537-0.537,1.085-1.498,1.274-2.234l0.652-2.534c0.093-0.359,0.516-0.802,0.87-0.912l1.701-0.523
	c0.102-0.031,0.208-0.047,0.316-0.047c0.408,0,0.801,0.22,1.001,0.563l1.426,2.469l0.009,0.017c0.208,0.389,0.2,0.945-0.017,1.323
	l-3.505,6.071c-0.169,0.293-0.462,0.469-0.783,0.469c-0.296,0-0.518-0.145-0.652-0.279L23.493,23.798z M9.047,9.394
	c0.192-0.717,0.476-1.403,0.842-2.038c0.731-1.266,1.794-2.325,3.074-3.063c1.764-1.018,3.845-1.356,5.891-0.943
	c0.32,0.064,0.543,0.257,0.641,0.49c0.079,0.19,0.066,0.4-0.037,0.578c-0.031,0.054-0.069,0.103-0.115,0.148
	c-0.615,0.613-1.149,1.309-1.587,2.068l-5.856,10.141c-0.163,0.282-0.424,0.444-0.715,0.444s-0.552-0.162-0.715-0.445
	c-0.224-0.388-0.538-0.931-0.577-1C8.765,13.823,8.467,11.56,9.047,9.394z M6.662,25.42c-0.525-0.524-0.977-1.113-1.343-1.748
	c-0.731-1.266-1.117-2.716-1.117-4.193c0-2.037,0.748-4.008,2.128-5.574c0.216-0.245,0.495-0.342,0.745-0.31
	c0.204,0.026,0.38,0.143,0.482,0.321c0.031,0.054,0.055,0.112,0.071,0.174c0.224,0.839,0.559,1.649,0.998,2.409l5.854,10.142
	c0.163,0.282,0.173,0.589,0.027,0.842c-0.146,0.252-0.417,0.397-0.743,0.397c-0.448,0-1.075,0-1.154,0
	C10.357,27.88,8.248,27.006,6.662,25.42z M19.35,35.499c-0.717,0.192-1.452,0.289-2.186,0.289c-1.462,0-2.911-0.391-4.189-1.13
	c-1.765-1.019-3.097-2.651-3.763-4.63c-0.104-0.31-0.05-0.6,0.104-0.8c0.125-0.164,0.314-0.258,0.519-0.258
	c0.062,0,0.125,0.009,0.186,0.026c0.839,0.226,1.708,0.34,2.585,0.34l11.71,0.001c0.326,0,0.597,0.146,0.742,0.397
	c0.146,0.253,0.136,0.56-0.027,0.842c-0.224,0.389-0.537,0.932-0.577,1C23.327,33.528,21.516,34.918,19.35,35.499z M34.422,29.551
	c-0.192,0.717-0.476,1.402-0.843,2.037c-0.73,1.267-1.794,2.325-3.073,3.063c-1.764,1.019-3.846,1.356-5.892,0.944
	c-0.32-0.065-0.543-0.258-0.641-0.49c-0.079-0.19-0.065-0.4,0.037-0.578c0.03-0.054,0.07-0.104,0.115-0.148
	c0.615-0.613,1.148-1.309,1.588-2.068l5.855-10.141c0.163-0.283,0.424-0.444,0.715-0.444c0.292,0,0.553,0.161,0.716,0.444
	c0.225,0.389,0.538,0.932,0.577,1C34.704,25.121,35.002,27.384,34.422,29.551z M37.138,25.039c-0.216,0.245-0.494,0.342-0.745,0.31
	c-0.204-0.025-0.379-0.143-0.482-0.32c-0.03-0.054-0.054-0.112-0.07-0.174c-0.224-0.84-0.559-1.649-0.997-2.409l-5.854-10.142
	c-0.163-0.283-0.174-0.589-0.027-0.842c0.146-0.252,0.416-0.397,0.742-0.397c0.449,0,1.076,0,1.154,0
	c2.254,0,4.362,0.874,5.948,2.459c0.525,0.525,0.978,1.113,1.344,1.749c0.731,1.266,1.117,2.716,1.116,4.193
	C39.266,21.503,38.519,23.474,37.138,25.039z"/>
</svg>
